<svg id="Layer_1" data-name="Layer 1" xmlns="http://www.w3.org/2000/svg" viewBox="0 0 500 868.38"><title>comments</title><path d="M250.11,0C112,0,0,87.91,0,196.35,0,247.83,25.09,294.6,66.26,329.6c-1.56,34.16-8.71,80-33.66,103.58,47.82,0,96.66-31.39,125.59-54.07a308.57,308.57,0,0,0,91.93,13.8C388,392.93,500,304.84,500,196.35S388,0,250.11,0ZM351.85,226.74H276.57a4.43,4.43,0,0,0-4.43,4.43v75.28a22.14,22.14,0,0,1-44.28,0V231.17a4.43,4.43,0,0,0-4.43-4.43H148.15a22.14,22.14,0,1,1,0-44.28h75.28a4.43,4.43,0,0,0,4.43-4.43V102.74a22.14,22.14,0,1,1,44.28,0V178a4.43,4.43,0,0,0,4.43,4.43h75.28a22.14,22.14,0,1,1,0,44.28Z" transform="translate(0 0.01)"/><path d="M250.11,435.18C112,435.18,0,523.1,0,631.54,0,683,25.09,729.79,66.26,764.79c-1.56,34.16-8.71,80-33.66,103.58,47.82,0,96.66-31.39,125.59-54.07a308.57,308.57,0,0,0,91.93,13.8C388,828.12,500,740,500,631.54S388,435.18,250.11,435.18Zm131.42,234.2H118.47a28.59,28.59,0,0,1,0-57.18H381.53a28.59,28.59,0,0,1,0,57.18Z" transform="translate(0 0.01)"/></svg>